# xmcd CD database file
#
# Track frame offsets:
#	150
#	23392
#	39651
#	61789
#	86169
#	105722
#	127064
#	144371
#	163305
#	195645
#	211484
#	229700
#	246984
#	274066
#	288800
#
# Disc length: 4131 seconds
#
# Revision: 0
# Processed by: cddbd v1.5.2PL0 Copyright (c) Steve Scherf et al.
# Submitted via: CDex 1.51
#
DISCID=d610210f
DTITLE=Cathy Jean - Little Sick Twist
DYEAR=2005
DGENRE=Blues
TTITLE0=Bitchovich
TTITLE1=So Proud
TTITLE2=Deeper
TTITLE3=Not Pretty
TTITLE4=Paint My Fence
TTITLE5=Happy Couple
TTITLE6=Brunettes
TTITLE7=Sawin'
TTITLE8=Something Dark Approaching
TTITLE9=Slow Down
TTITLE10=Come On Out
TTITLE11=The Judge
TTITLE12=No More Pecking
TTITLE13=Four Eyes
TTITLE14=Ripe Garden
EXTD=YEAR: 2005
EXTT0=
EXTT1=
EXTT2=
EXTT3=
EXTT4=
EXTT5=
EXTT6=
EXTT7=
EXTT8=
EXTT9=
EXTT10=
EXTT11=
EXTT12=
EXTT13=
EXTT14=
PLAYORDER=
